<svg width="24" height="24" fill="none" xmlns="http://www.w3.org/2000/svg"><path fill-rule="evenodd" clip-rule="evenodd" d="M5.5 3.25A2.25 2.25 0 003.25 5.5V9a2.25 2.25 0 002.25 2.25H9A2.25 2.25 0 0011.25 9V5.5A2.25 2.25 0 009 3.25H5.5zM4.75 5.5a.75.75 0 01.75-.75H9a.75.75 0 01.75.75V9a.75.75 0 01-.75.75H5.5A.75.75 0 014.75 9V5.5zm.75 7.25A2.25 2.25 0 003.25 15v3.5a2.25 2.25 0 002.25 2.25H9a2.25 2.25 0 002.25-2.25V15A2.25 2.25 0 009 12.75H5.5zM4.75 15a.75.75 0 01.75-.75H9a.75.75 0 01.75.75v3.5a.75.75 0 01-.75.75H5.5a.75.75 0 01-.75-.75V15zm8-9.5A2.25 2.25 0 0115 3.25h3.5a2.25 2.25 0 012.25 2.25V9a2.25 2.25 0 01-2.25 2.25H15A2.25 2.25 0 0112.75 9V5.5zM15 4.75a.75.75 0 00-.75.75V9c0 .414.336.75.75.75h3.5a.75.75 0 00.75-.75V5.5a.75.75 0 00-.75-.75H15zm0 8A2.25 2.25 0 0012.75 15v3.5A2.25 2.25 0 0015 20.75h3.5a2.25 2.25 0 002.25-2.25V15a2.25 2.25 0 00-2.25-2.25H15zM14.25 15a.75.75 0 01.75-.75h3.5a.75.75 0 01.75.75v3.5a.75.75 0 01-.75.75H15a.75.75 0 01-.75-.75V15z" fill="currentColor"/></svg>